<svg xmlns="http://www.w3.org/2000/svg" width="32" height="32" viewBox="0 0 8.467 8.467"><path fill="#f3f3f3" d="M0-.026h8.467v8.493H0z"/><path d="M3.388 3.219H5.33v.112H3.388zM3.388 3.63H5.33v.112H3.388zM3.388 4.078H5.33v.112H3.388zM3.388 4.489H5.33V4.6H3.388zM3.388 4.937H5.33v.112H3.388z"/><path d="M5.722 2.35H3.034a.336.336 0 0 0-.336.337v3.566c0 .186.15.336.336.336H5.2a.86.86 0 0 0 .859-.859V2.687a.336.336 0 0 0-.337-.336zm-2.8 3.903V2.687c0-.062.05-.112.112-.112h2.688c.062 0 .112.05.112.112v2.885h-.84v.793h-1.96a.112.112 0 0 1-.112-.112zm2.296.111v-.568h.613a.635.635 0 0 1-.613.568z" fill="#333"/><path d="M3.011 6.359a.123.123 0 0 1-.069-.048l-.013-.018V2.647l.019-.025c.035-.046-.082-.042 1.434-.042h1.373l.022.015a.162.162 0 0 1 .037.036l.014.022v2.914H4.99v.798h-.978c-.539 0-.989-.003-1-.006zm2.324-1.364v-.058H3.387V5.054h1.948zm0-.448V4.49H3.387V4.606h1.948zm0-.415v-.059H3.387V4.19h1.948zm0-.448v-.059H3.387V3.742h1.948zm0-.41v-.058H3.387V3.333h1.948z" fill="#fff"/><path d="M5.224 6.08V5.8h.605l-.004.025a.64.64 0 0 1-.558.532l-.043.004z" fill="#fff"/><g><g transform="matrix(1.17228 0 0 1.17228 -1.22 -338.367)"><circle cx="5.615" cy="293.827" r="1.188" fill="#02ae00"/><g fill="#333"><path d="M5.591 292.518a1.304 1.304 0 0 0 0 2.605c.718 0 1.303-.584 1.303-1.302 0-.719-.585-1.303-1.303-1.303zm0 2.4a1.098 1.098 0 1 1 1.097-1.097c0 .605-.492 1.097-1.097 1.097z"/><path d="M6.208 293.277l-.835.85-.413-.299a.118.118 0 0 0-.138.19l.495.359a.117.117 0 0 0 .153-.013l.905-.922a.117.117 0 1 0-.167-.165z" fill="#ffe9e9"/></g></g></g></svg>